<svg xmlns="http://www.w3.org/2000/svg" xmlns:xlink="http://www.w3.org/1999/xlink"><defs><linearGradient id="paint0_linear" x1="-.829" y1="26.147" x2="26.481" y2="-16.893" gradientUnits="userSpaceOnUse"><stop stop-color="#F0F"/><stop offset=".026" stop-color="#FF08F9"/><stop offset=".153" stop-color="#FF2BE2"/><stop offset=".288" stop-color="#FF48CE"/><stop offset=".43" stop-color="#FF5FBF"/><stop offset=".585" stop-color="#FF6FB4"/><stop offset=".76" stop-color="#FF78AE"/><stop offset="1" stop-color="#FF7BAC"/></linearGradient></defs><symbol id="hero-figure"><path fill-rule="evenodd" clip-rule="evenodd" d="M63.389 554.54c1.742-4.192 2.546-8.664 2.546-13.556 0-4.751-.804-9.223-2.546-13.695-1.742-4.193-4.02-7.827-6.969-11.041a33.539 33.539 0 00-10.453-7.407c-4.02-1.817-8.309-2.655-13-2.655-4.69 0-8.978.838-12.999 2.655a33.539 33.539 0 00-10.453 7.407c-2.948 3.075-5.36 6.848-6.969 11.041C.804 531.621 0 536.233 0 540.984c0 4.752.938 9.364 2.546 13.556a34.274 34.274 0 006.835 11.041c2.948 3.214 6.433 5.73 10.453 7.547 4.02 1.816 8.443 2.795 13.134 2.795 4.69 0 8.979-.979 13-2.795 4.02-1.957 7.504-4.333 10.452-7.547 2.949-3.075 5.36-6.848 6.969-11.041zm-8.577-22.919c1.206 2.935 1.742 6.149 1.742 9.503 0 3.494-.536 6.569-1.742 9.503-1.206 2.935-2.814 5.451-4.959 7.547-2.01 2.096-4.556 3.773-7.37 5.031-2.815 1.258-5.897 1.817-9.247 1.817-3.485 0-6.567-.559-9.515-1.817-2.949-1.258-5.36-2.935-7.505-5.031-2.144-2.096-3.753-4.612-4.959-7.547-1.206-2.934-1.742-6.149-1.742-9.503s.536-6.568 1.742-9.503c1.206-2.935 2.815-5.45 4.959-7.547 2.144-2.096 4.556-3.773 7.505-5.031 2.948-1.258 6.164-1.817 9.515-1.817 3.35 0 6.432.559 9.38 1.817 2.815 1.258 5.361 2.935 7.371 5.031 2.01 2.097 3.619 4.612 4.825 7.547zm10.051-145.762H21.844l44.091-40.389v-3.634H1.206v10.622h43.019L.135 392.846v3.634h64.728v-10.621zm1.072-226.681c0 4.892-1.072 9.224-3.216 12.858-2.144 3.633-4.825 6.568-8.175 8.525l-5.495-7.407c2.413-1.677 4.289-3.774 5.629-6.149 1.34-2.376 2.01-5.031 2.01-7.827 0-2.655-.67-5.031-1.876-6.987-1.206-1.957-3.216-3.075-5.897-3.075-1.206 0-2.278.28-3.082.699-.804.419-1.608 1.118-2.278 1.957-.67.838-1.34 1.816-1.876 2.934-.13.272-.268.551-.41.839-.444.898-.927 1.876-1.333 2.935l-3.216 7.407a50.614 50.614 0 01-3.484 6.708c-1.206 1.956-2.547 3.633-4.02 5.031a15.004 15.004 0 01-4.825 3.074 15.89 15.89 0 01-5.897 1.119c-2.814 0-5.36-.56-7.639-1.678-2.278-1.118-4.154-2.655-5.762-4.751-1.609-1.957-2.815-4.333-3.619-7.128-.804-2.655-1.34-5.59-1.34-8.804 0-5.59 1.206-10.482 3.752-14.814 2.413-4.332 5.897-7.686 10.052-10.202l5.494 7.547c-1.34.978-2.68 1.956-3.886 3.214-1.206 1.118-2.278 2.516-3.217 3.913-.938 1.398-1.608 2.935-2.278 4.612-.536 1.677-.804 3.634-.804 5.73 0 3.354.804 6.149 2.412 8.245 1.608 2.097 3.753 3.215 6.567 3.215 1.206 0 2.278-.28 3.216-.699.939-.419 1.743-1.118 2.413-1.957.67-.838 1.34-1.956 2.01-3.074.441-.737.825-1.595 1.227-2.494.208-.466.42-.943.65-1.419l3.215-7.407a61.697 61.697 0 013.083-6.01c1.072-1.816 2.412-3.493 3.752-4.891 1.474-1.397 2.948-2.515 4.825-3.354 1.742-.839 3.752-1.258 6.03-1.258 2.68 0 4.959.559 7.103 1.677 2.144 1.118 3.887 2.656 5.495 4.472a22.503 22.503 0 013.484 6.709c.804 2.375 1.206 5.031 1.206 7.965zm-1.072-67.64H21.844L65.935 51.15v-3.634H1.206v10.621h43.019L.135 98.526v3.633h64.728v-10.62zM1.207 0v10.621h63.657V0H1.207zM55.75 241.774v22.361h9.113v-55.343H55.75v22.361H1.206v10.621H55.75zM1.206 304.942V294.32h63.657v10.622H1.206zM55.75 482.15v-22.361H1.206v-10.621H55.75v-22.36h9.113v55.342H55.75z" fill="#000"/></symbol><symbol id="icon-arrow-right" viewBox="0 0 12 12"><path fill-rule="evenodd" clip-rule="evenodd" d="M6.354.98a.5.5 0 10-.708.707L9.46 5.5H1.333a.5.5 0 100 1H9.46l-3.813 3.813a.5.5 0 10.708.707l4.657-4.657a.499.499 0 00.004-.722L6.354.98z" fill="#000"/></symbol><symbol id="icon-basket" viewBox="0 0 20 22"><path fill-rule="evenodd" clip-rule="evenodd" d="M3.6.7A.5.5 0 014 .5h12a.5.5 0 01.4.2l2.997 3.996A.498.498 0 0119.5 5v14a2.5 2.5 0 01-2.5 2.5H3A2.5 2.5 0 01.5 19V5c0-.114.038-.22.103-.304L3.6.7zm12.15.8l2.25 3H2l2.25-3h11.5zM1.5 19V5.5h17V19a1.5 1.5 0 01-1.5 1.5H3A1.5 1.5 0 011.5 19zm5-10a.5.5 0 00-1 0 4.5 4.5 0 109 0 .5.5 0 00-1 0 3.5 3.5 0 11-7 0z" fill="#000"/></symbol><symbol id="icon-book" viewBox="0 0 12 10"><path fill-rule="evenodd" clip-rule="evenodd" d="M1 0a.5.5 0 00-.5.5V8a.5.5 0 00.5.5h3.5a1 1 0 011 1 .5.5 0 001 0 1 1 0 011-1H11a.5.5 0 00.5-.5V.5A.5.5 0 0011 0H8a2.5 2.5 0 00-2 1 2.5 2.5 0 00-2-1H1zm5.5 7.768a2 2 0 011-.268h3V1H8a1.5 1.5 0 00-1.5 1.5v5.268zm-1 0V2.5A1.5 1.5 0 004 1H1.5v6.5h3a2 2 0 011 .268z" fill="#E72378"/></symbol><symbol id="icon-close"><path fill-rule="evenodd" clip-rule="evenodd" d="M11.354 1.354a.5.5 0 00-.708-.708L6 5.293 1.354.646a.5.5 0 10-.708.708L5.293 6 .646 10.646a.5.5 0 00.708.708L6 6.707l4.646 4.647a.5.5 0 00.708-.708L6.707 6l4.647-4.646z" fill="#000"/></symbol><symbol id="icon-delivery"><path fill-rule="evenodd" clip-rule="evenodd" d="M30.8.389a1.036 1.036 0 00-1.6 0l-3 4 1.6 1.2 1.2-1.6v8h2v-8l1.2 1.6 1.6-1.2-3-4zm10.165 24.34a.75.75 0 00-.037-.09c-.017-.05-.037-.1-.061-.147a1.03 1.03 0 00-.07-.092.953.953 0 00-.086-.113 1.105 1.105 0 00-.093-.074 1.112 1.112 0 00-.1-.081l-10-6a1 1 0 00-1.03 0l-10 6a.887.887 0 00-.105.08 1.136 1.136 0 00-.094.075c-.031.035-.06.073-.086.112a.904.904 0 00-.07.093 1.054 1.054 0 00-.06.143 1.011 1.011 0 00-.038.095.969.969 0 00-.035.259v10a1 1 0 00.485.857l10 6 .01.005.012.008c.052.027.107.05.164.067l.008.003.006.002.016.007a.303.303 0 00.039.016c.17.046.35.046.52 0a.303.303 0 00.039-.016l.03-.012a.978.978 0 00.164-.067l.01-.008.012-.005 10-6a1 1 0 00.485-.857v-10a.976.976 0 00-.035-.26zM30 20.155l3.056 1.834L25 26.823l-3.056-1.834L30 20.155zm-9 14.267v-7.667l8 4.8v7.667l-8-4.8zm9-4.6l-3.056-1.833L35 23.155l3.056 1.834L30 29.823zm1 9.4v-7.667l8-4.8v7.668l-8 4.8zm0 16.767l1.2-1.6 1.6 1.2-3 4a1 1 0 01-1.6 0l-3-4 1.6-1.2 1.2 1.6v-8h2v8zm0-42h-2v2h2v-2zm-2 30h2v2h-2v-2zm-17-15H4l1.6-1.2-1.2-1.6-4 3a1 1 0 000 1.6l4 3 1.2-1.6-1.6-1.2h8v-2zm47.6.2a1 1 0 010 1.6l-4 3-1.2-1.6 1.6-1.2h-8v-2h8l-1.6-1.2 1.2-1.6 4 3zm-43.6-.2h-2v2h2v-2zm28 0h2v2h-2v-2zM17.98 16.554l-5.657-5.656 1.98.282.282-1.98-4.949-.711A1 1 0 008.5 9.625l.707 4.949 1.98-.283-.282-1.98 5.656 5.657 1.418-1.414zm32.81 28.85l.708 4.949a1 1 0 01-1.132 1.132l-4.95-.707.284-1.98 1.977.284-5.656-5.656 1.414-1.414 5.656 5.656-.282-1.98 1.982-.284zM19.395 17.969l-1.415 1.414 1.415 1.414 1.414-1.414-1.414-1.414zm19.799 22.626l1.414-1.414 1.414 1.414-1.414 1.414-1.414-1.414zM12.319 49.08l5.656-5.656-1.41-1.414-5.656 5.656.282-1.98-1.98-.282-.711 4.949a1 1 0 001.132 1.132l4.949-.707-.283-1.98-1.98.282zM50.364 8.493a1 1 0 011.132 1.132l-.707 4.949-1.98-.285.282-1.977-5.656 5.656-1.414-1.414 5.656-5.656-1.98.282-.282-1.98 4.949-.707zM19.394 39.18l-1.414 1.415 1.414 1.414 1.414-1.414-1.414-1.415zm19.8-19.802l1.413-1.414 1.415 1.414-1.415 1.415-1.414-1.415z" fill="#E72378"/></symbol><symbol id="icon-facebook" viewBox="0 0 20 20"><path d="M2.256 20h7.337c.345 0 .624-.28.624-.625l-.009-5.833a.625.625 0 00-.625-.625H7.708v-2.084h1.875c.345 0 .625-.28.625-.625V7.861a3.699 3.699 0 013.694-3.694h1.723V6.25h-1.042a1.46 1.46 0 00-1.458 1.458v2.5c0 .345.28.625.625.625h2.533l-.52 2.084H13.75a.625.625 0 00-.625.625v5.833c0 .345.28.625.625.625h3.994A2.258 2.258 0 0020 17.744V2.256A2.258 2.258 0 0017.744 0H2.256A2.258 2.258 0 000 2.256v15.489A2.258 2.258 0 002.256 20zM1.25 2.256c0-.555.45-1.006 1.006-1.006h15.489c.555 0 1.006.45 1.006 1.006v15.489c0 .555-.451 1.006-1.006 1.006h-3.37v-4.584h1.875a.626.626 0 00.607-.474l.833-3.333a.625.625 0 00-.607-.777h-2.708V7.708a.21.21 0 01.208-.208h1.667c.345 0 .625-.28.625-.625V3.542a.625.625 0 00-.625-.625h-2.348A4.95 4.95 0 008.959 7.86v1.722H7.083a.625.625 0 00-.625.625v3.334c0 .345.28.625.625.625h1.875v4.583H2.256c-.555 0-1.006-.45-1.006-1.006V2.256z" fill="#000"/></symbol><symbol id="icon-favorites" viewBox="0 0 23 20"><path d="M20.291 2.612a5.5 5.5 0 00-7.78 0l-1.06 1.06-1.06-1.06a5.501 5.501 0 00-7.78 7.78l1.06 1.06 7.78 7.78 7.78-7.78 1.06-1.06a5.5 5.5 0 000-7.78v0z" stroke="#000" stroke-linecap="round" stroke-linejoin="round"/></symbol><symbol id="icon-gift-grayscale" viewBox="0 0 32 32"><path fill-rule="evenodd" clip-rule="evenodd" d="M9.25 2a2.75 2.75 0 100 5.5h5.438c-.21-.644-.526-1.46-.97-2.268C12.744 3.463 11.317 2 9.25 2zM4.5 4.75c0 .992.31 1.952.877 2.75H1a1 1 0 00-1 1V16a1 1 0 001 1h2v14a1 1 0 001 1h24a1 1 0 001-1V17h2a1 1 0 001-1V8.5a1 1 0 00-1-1h-4.377A4.75 4.75 0 0022.75 0c-3.181 0-5.13 2.287-6.22 4.268-.2.362-.375.724-.53 1.072-.155-.348-.33-.71-.53-1.072C14.38 2.287 12.431 0 9.25 0A4.75 4.75 0 004.5 4.75zM17.312 7.5h5.438a2.75 2.75 0 000-5.5c-2.069 0-3.495 1.463-4.468 3.232-.444.808-.76 1.624-.97 2.268zM17 9.5V15h13V9.5H17zm-7.75 0H15V15H2V9.5h7.25zM17 30h10V17H17v13zm-2-13v13H5V17h10z" fill="#000"/></symbol><symbol id="icon-gift"><path fill-rule="evenodd" clip-rule="evenodd" d="M12 2a4 4 0 100 8h7.705l-.08-.26a18.4 18.4 0 00-1.376-3.258C16.932 4.088 14.944 2 12 2zM6 6a6 6 0 001.528 4H1a1 1 0 00-1 1v10a1 1 0 001 1h3v19a1 1 0 001 1h32a1 1 0 001-1V22h3a1 1 0 001-1V11a1 1 0 00-1-1h-6.528A6 6 0 0030 0c-4.056 0-6.568 2.912-8.001 5.518-.402.73-.732 1.458-.999 2.128a19.147 19.147 0 00-.999-2.128C18.568 2.912 16.056 0 12 0a6 6 0 00-6 6zm16.295 4H30a4 4 0 100-8c-2.944 0-4.932 2.088-6.249 4.482A18.4 18.4 0 0022.295 10zM22 12v8h18v-8H22zm-10 0h8v8H2v-8h10zm10 28h14V22H22v18zm-2-18v18H6V22h14z" fill="#E72378"/></symbol><symbol id="icon-heart-full"><path d="M19.84 2.61a5.5 5.5 0 00-7.78 0L11 3.67 9.94 2.61a5.501 5.501 0 00-7.78 7.78l1.06 1.06L11 19.23l7.78-7.78 1.06-1.06a5.499 5.499 0 000-7.78z" fill="#000"/></symbol><symbol id="icon-heart-logo"><path d="M11.008 21.806a.783.783 0 00.493.194c.165 0 .37-.077.493-.194l9.203-8.784C25.058 9.346 22.306 3 16.842 3c-3.286 0-4.807 2.283-5.382 2.709C10.885 5.283 9.365 3 6.08 3 .697 3-2.056 9.308 1.806 12.984l9.202 8.822z" fill="url(#paint0_linear)"/></symbol><symbol id="icon-heart"><path d="M30.633 14.584v.001l-13.59 13.393a.205.205 0 01-.041.018.248.248 0 01-.041-.018L3.373 14.528l-.002-.003C-1.681 9.56 1.9 1 8.986 1c3.484 0 5.31 1.89 6.509 3.128.318.329.59.611.84.801l.606.464.608-.464c.248-.19.521-.472.839-.8C19.586 2.888 21.413 1 24.897 1c7.216 0 10.782 8.624 5.736 13.584z" stroke="#000" stroke-width="2"/></symbol><symbol id="icon-instagram" viewBox="0 0 20 20"><path fill-rule="evenodd" clip-rule="evenodd" d="M3.958 20h12.084A3.963 3.963 0 0020 16.042V3.958A3.963 3.963 0 0016.042 0H3.958A3.963 3.963 0 000 3.958v12.084A3.963 3.963 0 003.958 20zM1.25 3.958A2.711 2.711 0 013.958 1.25h12.084a2.711 2.711 0 012.708 2.708v12.084a2.711 2.711 0 01-2.708 2.708H3.958a2.711 2.711 0 01-2.708-2.708V3.958zM10 15.108A5.114 5.114 0 0015.108 10 5.114 5.114 0 0010 4.892 5.114 5.114 0 004.892 10 5.114 5.114 0 0010 15.108zm0-8.966A3.863 3.863 0 0113.858 10 3.863 3.863 0 0110 13.858 3.863 3.863 0 016.142 10 3.863 3.863 0 0110 6.142zM16.74 4.7c0 .817-.62 1.434-1.442 1.434-.791 0-1.44-.583-1.44-1.434 0-.818.62-1.434 1.441-1.434.789 0 1.44.581 1.44 1.434zm-1.294-.138c.263.233-.338.515-.338.139 0-.225.306-.167.338-.139z" fill="#000"/></symbol><symbol id="icon-like-blank"><path d="M15.766 2.238A4.21 4.21 0 0012.79 1 4.198 4.198 0 009.81 2.238L9 3.052l-.812-.814a4.204 4.204 0 00-5.955 0 4.231 4.231 0 000 5.974l.812.814L9 15l5.955-5.974.811-.814A4.225 4.225 0 0017 5.225a4.237 4.237 0 00-1.234-2.987v0z" stroke="#000" stroke-linecap="round" stroke-linejoin="round"/></symbol><symbol id="icon-mail" viewBox="0 0 66 46"><path d="M65.403 1.23c0-.01 0-.019-.003-.028-.003-.01-.004-.035-.005-.052a.955.955 0 00-.045-.223c-.004-.01 0-.02-.006-.03l-.008-.013a.946.946 0 00-.124-.222.96.96 0 00-.206-.205l-.018-.015a.953.953 0 00-.226-.11l-.055-.017a.948.948 0 00-.26-.04H1.556a.948.948 0 00-.314.058.954.954 0 00-.226.109c-.007.004-.012.01-.019.015a.96.96 0 00-.17.161L.79.662a.948.948 0 00-.124.222C.666.89.661.893.66.897l-.006.03a.948.948 0 00-.045.223c0 .018-.005.035-.005.052 0 .017-.003.018-.003.028v43.54c0 .012.003.024.004.037a.947.947 0 00.01.102l.015.084a.96.96 0 00.03.097c.01.026.019.052.03.076a.936.936 0 00.051.095c.013.021.026.044.041.065a.95.95 0 00.068.083l.055.058c.012.01.02.023.032.033.012.01.02.01.029.017.075.06.158.108.247.143.02.008.039.012.059.018a.946.946 0 00.266.047c.007 0 .013.003.02.003h62.889c.007 0 .013-.003.019-.003a.944.944 0 00.267-.047c.02-.006.038-.01.055-.018a.95.95 0 00.248-.143c.008-.008.02-.01.028-.017.009-.007.02-.023.032-.033a.954.954 0 00.215-.3c.012-.025.02-.05.03-.077a.965.965 0 00.03-.097c.007-.028.01-.055.015-.084a.954.954 0 00.01-.102c0-.013.004-.025.004-.038l.004-43.539zM23.047 20.985l9.329 8.027a.958.958 0 001.248 0l9.33-8.027 19.42 22.827H3.627l19.42-22.827zM2.512 42.17V3.316l19.086 16.42L2.512 42.17zm41.89-22.432L63.49 3.317v38.852L44.403 19.737zm17.463-17.55L42.448 18.895c-.003.002-.008.004-.01.007l-.011.011L33 27.023l-9.426-8.11-.01-.01-.012-.008L4.135 2.187h57.73z" fill="#E72378"/></symbol><symbol id="icon-map-pin" viewBox="0 0 18 20"><path fill-rule="evenodd" clip-rule="evenodd" d="M4.404 3.737A6.5 6.5 0 0115.5 8.333c0 2.515-1.64 4.98-3.476 6.917A24.353 24.353 0 019 17.936a24.356 24.356 0 01-3.024-2.686C4.141 13.312 2.5 10.848 2.5 8.333a6.5 6.5 0 011.904-4.596zm4.04 16.261L9 19.167l-.555.832a1 1 0 001.11 0L9 19.167l.555.831.003-.002.006-.003.02-.014a9.507 9.507 0 00.324-.228 26.365 26.365 0 003.568-3.126c1.915-2.021 4.024-4.973 4.024-8.292a8.5 8.5 0 10-17 0c0 3.319 2.11 6.271 4.024 8.292a26.362 26.362 0 003.568 3.126 16.205 16.205 0 00.325.228l.02.014.005.004h.002v.001zM7.5 8.333a1.5 1.5 0 113 0 1.5 1.5 0 01-3 0zm1.5-3.5a3.5 3.5 0 100 7 3.5 3.5 0 000-7z" fill="#000"/></symbol><symbol id="icon-mask" viewBox="0 0 34 31"><path fill-rule="evenodd" clip-rule="evenodd" d="M25.505 1.654c.858 0 1.728-.08 2.586-.239L34 .325V6.78c0 5.72-4.785 10.373-10.666 10.373-2.795 0-4.689-1.187-6.094-2.068l-.234-.147c-1.842 1.15-3.63 2.215-6.34 2.215-1.681 0-3.273-.381-4.69-1.058v14.62H3.985V14.859C1.556 12.956 0 10.04 0 6.78V.324l5.91 1.091c.857.159 1.727.239 2.585.239 2.908 0 5.767.724 8.505 2.155 2.741-1.43 5.6-2.155 8.505-2.155zm-2.171 13.561c4.783 0 8.674-3.784 8.674-8.435V2.665l-3.546.654c-.98.18-1.975.272-2.957.272-3.269 0-5.825.952-8.505 2.441-2.607-1.45-5.19-2.44-8.505-2.44a16.34 16.34 0 01-2.957-.273l-3.546-.655V6.78c0 4.651 3.891 8.435 8.674 8.435 2.192 0 3.624-.886 5.413-1.993.297-.183.603-.373.924-.566.347.207.675.41.99.604 1.783 1.1 3.168 1.955 5.34 1.955zm-6.797-7.174c.171.102.326.194.463.272.138-.078.293-.17.465-.273 1.48-.881 4.217-2.511 8.04-2.511 1.107 0 2.227-.104 3.329-.307l1.182-.218V6.78c0 3.583-2.998 6.498-6.682 6.498-1.55 0-2.596-.642-3.927-1.459-.69-.423-1.455-.893-2.407-1.344-.918.437-1.67.899-2.353 1.318-1.342.824-2.42 1.485-3.98 1.485-3.685 0-6.683-2.915-6.683-6.498V5.004l1.182.218a18.38 18.38 0 003.33.307c3.823 0 6.563 1.632 8.04 2.512zM6.008 7.312c.272 2.265 2.257 4.029 4.658 4.029.992 0 1.765-.477 2.879-1.163.406-.25.857-.528 1.38-.821-1.427-.824-3.575-1.891-6.43-1.891-.827 0-1.659-.052-2.487-.154zm14.527 2.908c1.093.674 1.816 1.12 2.799 1.12 2.4 0 4.386-1.763 4.658-4.028a20.34 20.34 0 01-2.487.154c-2.855 0-5 1.065-6.427 1.889.564.314 1.038.606 1.457.865z" fill="#000"/></symbol><symbol id="icon-minus"><path d="M.75 1h10.5" stroke="#000" stroke-linecap="round" stroke-linejoin="round"/></symbol><symbol id="icon-person" viewBox="0 0 18 20"><path fill-rule="evenodd" clip-rule="evenodd" d="M5.5 5a3.5 3.5 0 117 0 3.5 3.5 0 01-7 0zM9 .5a4.5 4.5 0 100 9 4.5 4.5 0 000-9zm-4 12A4.5 4.5 0 00.5 17v2a.5.5 0 001 0v-2A3.5 3.5 0 015 13.5h8a3.5 3.5 0 013.5 3.5v2a.5.5 0 001 0v-2a4.5 4.5 0 00-4.5-4.5H5z" fill="#000"/></symbol><symbol id="icon-plus"><path fill-rule="evenodd" clip-rule="evenodd" d="M6.5.75a.5.5 0 00-1 0V5.5H.75a.5.5 0 000 1H5.5v4.75a.5.5 0 001 0V6.5h4.75a.5.5 0 000-1H6.5V.75z" fill="#000"/></symbol><symbol id="icon-right-arrow"><path fill-rule="evenodd" clip-rule="evenodd" d="M6.354.98a.5.5 0 10-.708.707L9.46 5.5H1.333a.5.5 0 000 1H9.46l-3.813 3.813a.5.5 0 10.708.707l4.666-4.666m.002-.003a.5.5 0 00-.002-.705L6.354.98" fill="#000"/></symbol><symbol id="icon-search" viewBox="0 0 16 16"><path fill-rule="evenodd" clip-rule="evenodd" d="M1 7.167a6.167 6.167 0 1110.588 4.299.507.507 0 00-.122.122A6.167 6.167 0 011 7.167zm10.868 5.409a7.167 7.167 0 11.707-.707l3.279 3.277a.5.5 0 01-.708.708l-3.278-3.278z" fill="#000"/></symbol><symbol id="icon-shield" viewBox="0 0 28 32"><path fill-rule="evenodd" clip-rule="evenodd" d="M27.593 8.682l-.001-.025a33.342 33.342 0 01-.029-.994 3.391 3.391 0 00-3.193-3.322c-3.68-.206-6.526-1.405-8.958-3.776l-.02-.02a2.048 2.048 0 00-2.783 0l-.021.02c-2.432 2.37-5.278 3.57-8.957 3.776A3.391 3.391 0 00.437 7.663c-.005.36-.015.685-.029.994l-.001.058c-.072 3.752-.16 8.421 1.402 12.66.858 2.33 2.16 4.356 3.866 6.02 1.943 1.897 4.488 3.403 7.565 4.476a2.334 2.334 0 001.21.084c.106-.021.211-.05.312-.085 3.073-1.074 5.615-2.58 7.557-4.477 1.706-1.666 3.006-3.692 3.866-6.023 1.568-4.25 1.48-8.929 1.408-12.688zm-3.17 12.038c-1.647 4.467-5.01 7.535-10.281 9.378a.42.42 0 01-.284 0c-5.276-1.84-8.641-4.906-10.287-9.373-1.44-3.906-1.359-8.193-1.287-11.974v-.02c.016-.326.025-.666.03-1.04a1.507 1.507 0 011.421-1.475c2.082-.117 3.911-.519 5.592-1.23 1.679-.71 3.17-1.712 4.557-3.062.07-.06.162-.06.232 0 1.388 1.35 2.88 2.351 4.557 3.062 1.68.711 3.51 1.113 5.592 1.23a1.507 1.507 0 011.42 1.475c.006.376.016.716.03 1.04.073 3.785.152 8.074-1.292 11.99zM14 8.026c-4.398 0-7.975 3.577-7.975 7.974 0 4.398 3.577 7.976 7.975 7.976 4.397 0 7.975-3.578 7.975-7.976 0-4.397-3.578-7.974-7.975-7.974zm0 14.072A6.104 6.104 0 017.903 16 6.104 6.104 0 0114 9.903 6.104 6.104 0 0120.097 16 6.104 6.104 0 0114 22.098zm-1.412-4.87l3.704-3.703a.938.938 0 111.328 1.327l-4.369 4.369a.936.936 0 01-1.327 0l-1.67-1.67a.94.94 0 011.328-1.328l1.006 1.006z" fill="#000"/></symbol><symbol id="icon-shopping-bag"><path fill-rule="evenodd" clip-rule="evenodd" d="M5.2.4A1 1 0 016 0h18a1 1 0 01.8.4l4.494 5.992c.13.168.206.38.206.608v21a4 4 0 01-4 4h-21a4 4 0 01-4-4V7c0-.229.077-.44.206-.608L5.2.4zM23.5 2l3 4h-23l3-4h17zm-21 26V8h25v20a2 2 0 01-2 2h-21a2 2 0 01-2-2zM10 13a1 1 0 10-2 0 7 7 0 1014 0 1 1 0 10-2 0 5 5 0 11-10 0z" fill="#000"/></symbol><symbol id="icon-smile-delivery" viewBox="0 0 22 22"><path fill-rule="evenodd" clip-rule="evenodd" d="M11 2a9 9 0 100 18 9 9 0 000-18zM0 11C0 4.925 4.925 0 11 0s11 4.925 11 11-4.925 11-11 11S0 17.075 0 11zm7-3a1 1 0 011-1h.01a1 1 0 110 2H8a1 1 0 01-1-1zm7-1a1 1 0 100 2h.01a1 1 0 100-2H14zm-7.447 4.776a.5.5 0 01.67-.223l3.779 1.889 3.789-1.867a.5.5 0 01.442.897l-3.108 1.531 3.099 1.55a.5.5 0 11-.448.894l-3.778-1.889-3.789 1.867a.5.5 0 11-.442-.897l3.108-1.531-3.099-1.55a.5.5 0 01-.223-.67z" fill="#000"/></symbol><symbol id="icon-smile" viewBox="0 0 36 36"><path d="M18 33c8.284 0 15-6.716 15-15 0-8.284-6.716-15-15-15C9.716 3 3 9.716 3 18c0 8.284 6.716 15 15 15z" stroke="#000" stroke-width="2" stroke-linecap="round" stroke-linejoin="round"/><path d="M12 21s2.25 3 6 3 6-3 6-3M13.5 13.5h.015M22.5 13.5h.015" stroke="#000" stroke-width="2" stroke-linecap="round" stroke-linejoin="round"/></symbol><symbol id="icon-telegram" viewBox="0 0 20 19"><path d="M.346 9.33l4.89 2.438c.19.093.413.086.594-.02l4.353-2.53-2.635 2.335a.626.626 0 00-.21.468v5.687c0 .6.765.853 1.124.376l2.114-2.81 5.229 2.977c.367.21.837-.001.922-.42l3.26-16.25a.625.625 0 00-.84-.705L.397 8.188A.626.626 0 00.346 9.33zm18.191-6.874l-2.865 14.28-4.955-2.821a.626.626 0 00-.809.168l-1.32 1.755v-3.536l7.125-6.314c.564-.499-.084-1.386-.728-1.008l-9.492 5.518-3.327-1.657 16.371-6.385z" fill="#000"/></symbol><symbol id="icon-to-surprise"><path fill-rule="evenodd" clip-rule="evenodd" d="M8 .132v8.892c0 4.896 2.808 7.92 7.38 7.92 3.312 0 5.4-1.62 6.408-4.212.828 1.728 2.448 2.916 4.86 2.916 4.176 0 6.552-2.628 6.552-7.056V.132H8zm14.832 3.132h7.452v5.22c0 2.7-1.26 4.068-3.744 4.068s-3.708-1.332-3.708-4.032V3.264zm-11.916 0h9v5.328c0 3.456-1.368 5.184-4.5 5.184-3.132 0-4.5-1.728-4.5-5.184V3.264zM.656 21.638v2.988h9.612c-1.548 1.044-2.556 3.24-2.556 5.292 0 5.22 3.96 8.136 9.36 8.136 5.4 0 9.36-2.916 9.36-8.136 0-2.304-1.224-4.428-2.628-5.292h2.34v-2.988H.656zm16.416 13.32c-3.996 0-6.696-2.016-6.696-5.328 0-3.276 2.7-5.292 6.696-5.292 3.996 0 6.696 1.98 6.696 5.292s-2.7 5.328-6.696 5.328zm.792 22.793c4.752 0 8.568-3.096 8.568-8.1 0-5.148-4.212-8.28-9.36-8.28-5.04 0-9.36 3.132-9.36 8.28 0 3.708 1.548 6.048 5.112 7.776l1.08-2.52c-2.484-1.26-3.528-2.7-3.528-5.184 0-3.204 2.52-5.184 6.228-5.328V57.75h1.26zm1.296-13.176c2.988.612 4.608 2.592 4.608 5.076 0 2.88-1.764 4.644-4.608 5.076V44.575zM8 62.138v2.988h12.816l-11.16 4.788v2.088l11.16 4.788H8v2.952h18.144v-3.564l-12.348-5.22 12.348-5.256v-3.564H8zm18.144 28.247c0-1.764-.504-3.204-1.548-4.356-1.008-1.116-2.304-1.692-3.924-1.692-2.34 0-4.14 1.296-4.968 3.42L8 83.365v3.24l7.236 3.924v3.6H8v2.952h18.144v-6.696zM17.9 94.129V90.42c0-1.908 1.008-3.132 2.772-3.132 1.836 0 2.808 1.224 2.808 3.132v3.708H17.9zm15.3 311.459l-14.256-6.084 14.256-6.012v-3.276l-18.108 7.632L8 394.824v3.096l25.2 10.836v-3.168zm-29.664 2.01v2.844H8v13.536H3.536v2.844h7.128v-2.592h15.48v-12.348l-9.396-.684c-3.312-.252-4.968-.72-6.084-1.62v-1.98H3.536zm7.128 5.112c.972.576 2.916.972 5.832 1.188l6.984.54v6.84H10.664v-8.568zM8 430.524v3.096l13.716 8.604H8v2.952h18.144v-3.06l-13.716-8.604h13.716v-2.988H8zm0 20.039v7.2c0 3.636 2.124 5.94 5.472 5.94 2.052 0 3.6-1.116 4.464-2.808.72 1.152 2.016 1.944 3.564 1.944 2.988 0 4.644-2.124 4.644-5.4v-6.876H8zm10.908 2.988h4.572v3.78c0 1.728-.756 2.592-2.268 2.592-1.548 0-2.304-.864-2.304-2.592v-3.78zm-8.244 0h5.652v3.852c0 2.16-.972 3.312-2.844 3.312-1.872 0-2.808-1.116-2.808-3.312v-3.852zM8 466.133a4.752 4.752 0 00-.216 1.404c0 2.916 1.764 4.212 5.688 4.464l10.008.72v6.948H8v2.952h18.144v-12.456l-12.312-.9c-2.484-.18-3.384-.648-3.384-1.944 0-.36.072-.756.216-1.188H8zm18.144 27.127c0-1.764-.504-3.204-1.548-4.356-1.008-1.116-2.304-1.692-3.924-1.692-2.34 0-4.14 1.296-4.968 3.42L8 486.24v3.24l7.236 3.924v3.6H8v2.952h18.144v-6.696zm-8.244 3.744v-3.708c0-1.908 1.008-3.132 2.772-3.132 1.836 0 2.808 1.224 2.808 3.132v3.708H17.9zM8 509.295v2.952h15.48v5.544h2.664v-14.004H23.48v5.508H8zm0 12.284v6.696c0 3.924 2.196 6.156 5.616 6.156 3.42 0 5.58-2.232 5.58-6.156v-3.708h6.948v-2.988H8zm2.664 2.988h5.904v3.42c0 2.196-.972 3.276-2.952 3.276-2.016 0-2.952-1.08-2.952-3.276v-3.42zM16 124v239h2V124h-2z" fill="#000"/></symbol><symbol id="icon-vk" viewBox="0 0 22 14"><path d="M11.133 13.875c3.183 0 2.048-2.015 2.293-2.594-.003-.433-.007-.849.008-1.102.201.057.677.298 1.66 1.253 1.517 1.53 1.905 2.443 3.13 2.443h2.256c.715 0 1.087-.296 1.273-.544.18-.24.356-.662.164-1.319-.504-1.58-3.439-4.309-3.621-4.597.027-.053.071-.123.094-.16h-.002c.58-.766 2.79-4.078 3.116-5.404l.002-.007c.176-.605.015-.998-.152-1.22-.251-.331-.651-.499-1.191-.499h-2.256c-.755 0-1.328.38-1.618 1.074-.485 1.233-1.847 3.769-2.868 4.666a58.735 58.735 0 01.006-2.963c.033-1.408.14-2.777-1.32-2.777H8.56c-.915 0-1.79 1-.843 2.185.829 1.04.298 1.62.477 4.503-.697-.747-1.936-2.765-2.812-5.343C5.137.772 4.765.126 3.717.126H1.461C.546.126 0 .625 0 1.46c0 1.875 4.152 12.415 11.133 12.415zM3.717 1.501c.199 0 .22 0 .367.419.897 2.643 2.91 6.553 4.38 6.553 1.105 0 1.105-1.132 1.105-1.558V3.52C9.507 2.398 9.098 1.84 8.83 1.5l3.216.004c.002.015-.018 3.753.01 4.66 0 1.285 1.02 2.022 2.614.409 1.682-1.899 2.846-4.737 2.892-4.852.07-.165.129-.221.345-.221H20.173l-.003.008c-.206.963-2.242 4.03-2.923 4.982a.813.813 0 00-.031.046c-.3.49-.544 1.03.041 1.791h.001c.053.065.192.215.393.424.627.647 2.778 2.86 2.968 3.74-.126.02-.264.005-2.395.01-.454 0-.808-.678-2.162-2.044-1.218-1.185-2.008-1.669-2.727-1.669-1.397 0-1.296 1.134-1.283 2.506.005 1.486-.004 1.016.006 1.11-.082.032-.316.096-.925.096-5.816 0-9.604-9.232-9.75-10.996.05-.005.745-.002 2.334-.003z" fill="#000"/></symbol><symbol id="icon-whatsapp" viewBox="0 0 20 20"><path fill-rule="evenodd" clip-rule="evenodd" d="M.672 20.028a.625.625 0 01-.603-.79l1.256-4.566C-4.082 4.846 8.84-5.121 17.138 2.899c6.053 6.242 1.745 16.97-7.051 16.97a19.276 19.276 0 00-.438-.035c-.977-.07-2.36-.168-4.104-1.056C.926 19.976.813 20.028.7 20.028H.672zM16.296 3.86a1.804 1.804 0 01-.153-.183C8.826-3.173-2.448 5.672 2.538 14.276a.625.625 0 01.06.479l-1.037 3.77 3.903-1.017c.2-.053.429.055.784.22.62.29 1.622.76 3.518.865 3.665.199 6.936-1.917 8.353-5.35 2.072-5.014-1.067-8.535-1.823-9.383zm-1.22 8.043c.595 1.077-.593 3.964-3.968 3.16-3.151-.752-7.15-4.352-7.15-7.326 0-1.363.935-2.945 2.139-2.945 1.156 0 1.412.253 1.748 1.187l.002.006c.116.322.273.76.588 1.388.376.75-.173 1.364-.468 1.695l-.003.002-.02.022c-.044.05-.097.11-.138.16.843 1.372 1.664 1.855 2.888 2.467.065-.083.127-.165.187-.244.526-.695.884-1.17 1.71-.868.105.04 2.247.866 2.485 1.296zM6.536 6.06a3.278 3.278 0 00-.44-.018c-.31 0-.888.87-.888 1.694 0 2.165 3.297 5.42 6.19 6.11 1.686.402 2.52-.394 2.559-1.258a35.282 35.282 0 00-1.733-.783 8.661 8.661 0 00-.336.415c-.45.576-.815 1.047-1.63.678-1.512-.751-2.567-1.372-3.621-3.162-.375-.645.11-1.183.434-1.542.121-.134.22-.243.24-.323-.35-.645-.522-1.13-.64-1.462a4.16 4.16 0 00-.134-.349z" fill="#000"/></symbol><symbol id="temp-icon-left-arrow" viewBox="0 0 31.494 31.494"><path d="M10.273 5.01a1.117 1.117 0 011.587 1.57l-8.047 8.047h26.554c.62 0 1.127.492 1.127 1.11 0 .62-.508 1.128-1.127 1.128H3.813l8.047 8.032c.43.444.43 1.16 0 1.587a1.112 1.112 0 01-1.587 0L.32 16.532a1.12 1.12 0 010-1.57l9.953-9.953z" fill="#FFF"/></symbol><symbol id="temp-icon-right-arrow" viewBox="0 0 31.49 31.49"><path d="M21.205 5.007a1.117 1.117 0 00-1.587 1.57l8.047 8.048H1.11c-.618 0-1.11.493-1.11 1.112 0 .62.492 1.127 1.11 1.127h26.555l-8.047 8.032c-.43.444-.43 1.16 0 1.587.444.444 1.16.444 1.587 0l9.952-9.952a1.092 1.092 0 000-1.57l-9.952-9.95z" fill="#1E201D"/></symbol></svg>